<svg xmlns="http://www.w3.org/2000/svg" version="1.0" width="500.000000pt" height="500.000000pt" viewBox="0 0 500.000000 500.000000" preserveAspectRatio="xMidYMid meet">

<g transform="translate(0.000000,500.000000) scale(0.100000,-0.100000)" fill="#3f51b5" stroke="none">
<path d="M2174 3803 c-12 -2 -30 -13 -40 -24 -18 -20 -16 -25 76 -211 52 -105 104 -196 115 -204 14 -9 69 -13 195 -14 96 -1 183 -1 192 -1 27 2 201 280 222 356 3 11 1 27 -4 34 -7 13 -23 8 -97 -26 -152 -72 -215 -68 -353 23 -46 29 -99 58 -119 64 -35 10 -144 11 -187 3z" fill="#3f51b5"/>
<path d="M2267 3240 c-51 -15 -91 -56 -136 -136 -65 -116 -141 -232 -193 -292 -120 -140 -203 -403 -177 -562 21 -131 80 -201 234 -275 233 -114 480 -139 825 -85 145 22 219 43 275 75 61 35 132 117 168 193 43 92 50 215 17 312 -38 116 -115 262 -220 420 -193 292 -231 332 -325 344 -77 10 -440 14 -468 6z m313 -320 c0 -25 6 -32 44 -48 50 -23 89 -70 105 -126 6 -22 9 -41 8 -43 -2 -1 -29 -5 -60 -9 -54 -6 -57 -6 -66 19 -21 53 -31 40 -31 -42 l0 -79 37 -19 c50 -24 99 -90 107 -145 12 -81 -33 -170 -102 -203 -33 -16 -42 -26 -44 -50 -3 -28 -6 -30 -45 -33 -42 -3 -43 -2 -43 27 0 25 -7 32 -46 51 -52 26 -100 85 -110 137 -4 19 -5 35 -3 37 2 2 30 7 62 10 46 6 57 5 57 -7 0 -8 9 -25 20 -38 l19 -24 1 82 0 83 -37 19 c-99 50 -138 159 -94 256 19 43 68 91 108 106 17 6 23 16 23 39 0 29 2 30 45 30 43 0 45 -1 45 -30z" fill="#3f51b5"/>
<path d="M2457 2731 c-9 -16 -17 -36 -17 -45 0 -23 21 -64 36 -70 11 -4 14 10 14 69 0 41 -4 75 -8 75 -4 0 -15 -13 -25 -29z" fill="#3f51b5"/>
<path d="M2580 2403 c0 -74 0 -76 19 -59 28 25 33 61 17 101 -24 57 -36 43 -36 -42z" fill="#3f51b5"/>
<path d="M1820 1465 c0 -108 1 -115 20 -115 17 0 20 7 20 50 l0 50 40 0 c29 0 40 4 40 15 0 11 -11 15 -40 15 -39 0 -40 1 -40 35 l0 35 50 0 c38 0 50 4 50 15 0 12 -14 15 -70 15 l-70 0 0 -115z" fill="#3f51b5"/>
<path d="M2050 1490 c0 -83 2 -93 25 -115 43 -44 125 -27 145 28 5 16 10 63 10 103 0 67 -2 74 -20 74 -18 0 -20 -7 -20 -80 0 -67 -3 -83 -20 -100 -23 -23 -33 -24 -61 -10 -17 9 -19 22 -19 100 0 83 -1 90 -20 90 -19 0 -20 -7 -20 -90z" fill="#3f51b5"/>
<path d="M2320 1465 c0 -108 1 -115 20 -115 17 0 19 8 22 82 l3 82 54 -82 c35 -54 60 -82 72 -82 17 0 19 9 19 115 0 108 -1 115 -20 115 -17 0 -19 -8 -22 -77 l-3 -77 -50 77 c-38 58 -56 77 -72 77 -23 0 -23 -2 -23 -115z" fill="#3f51b5"/>
<path d="M2610 1465 l0 -117 70 4 c60 3 74 8 97 31 23 23 27 35 27 82 0 47 -4 59 -27 82 -23 23 -37 28 -97 31 l-70 4 0 -117z m139 60 c21 -21 21 -99 1 -120 -9 -8 -34 -16 -55 -18 l-40 -2 -3 69 c-4 92 0 100 45 93 20 -4 44 -13 52 -22z" fill="#3f51b5"/>
<path d="M2900 1465 c0 -108 1 -115 20 -115 19 0 20 7 20 115 0 108 -1 115 -20 115 -19 0 -20 -7 -20 -115z" fill="#3f51b5"/>
<path d="M3020 1565 c0 -10 11 -15 35 -15 l35 0 0 -100 c0 -93 1 -100 20 -100 19 0 20 7 20 100 l0 100 35 0 c24 0 35 5 35 15 0 12 -17 15 -90 15 -73 0 -90 -3 -90 -15z" fill="#3f51b5"/>
</g>
</svg>